<svg width="200" height="200" viewBox="0 0 200 200" fill="none" xmlns="http://www.w3.org/2000/svg">
<path d="M161.75 129.5L150.5 141V150.5H83L94.5 161.75H161.75V129.5Z" fill="white"/>
<path d="M161.75 105.5V38.25H129.5L141 49.5H150.5V117L161.75 105.5Z" fill="white"/>
<path d="M38.25 70.5L49.5 59V49.5H117L105.5 38.25H38.25V70.5Z" fill="white"/>
<path d="M38.25 94.5V161.75H70.5L59 150.5H49.5V83L38.25 94.5Z" fill="white"/>
<path d="M35.25 106.75L28.5 100L76.25 52.25H60.25L12.5 100L35.25 122.75V106.75Z" fill="white"/>
<path d="M100 187.5L122.75 164.75H106.75L100 171.5L52.25 123.75V139.75L77.25 164.75L100 187.5Z" fill="white"/>
<path d="M164.75 77.25V93.25L171.5 100L123.75 147.75H139.75L187.5 100L164.75 77.25Z" fill="white"/>
<path d="M100 12.5L77.25 35.25H93.25L100 28.5L147.75 76.25V60.25L122.75 35.25L100 12.5Z" fill="white"/>
<path d="M102.25 87.25C103.5 87.25 104.75 86.75 105.75 85.75C105.25 86 104.5 86.25 104 86.25C101.5 86.25 99.5 84.25 99.5 81.75C99.5 80.5 100 79.5 100.75 78.75C99 79.5 98 81 98 83C98 85.25 99.5 87 101.75 87.5C101.5 87.5 101.25 87.75 101.25 87.75C101.25 87.75 101.5 88 101.75 88V88.5C101.25 88.5 101 88.75 101 89C101 89.25 101.25 89.5 101.75 89.5V90C101.5 90 101.25 90.25 101.25 90.25C101.25 90.5 101.5 90.5 101.75 90.5V91L100.75 92.75L100 93.5V93.75L100.25 94C100.75 94 101 94.25 101.5 94.25C102 94.25 102.25 94.25 102.75 94C102.75 94 103 94 103 93.75V93.5L102.75 92.75L101.75 91V90.5C102 90.5 102.25 90.25 102.25 90.25C102.25 90 102 90 101.75 90V89.5C102.25 89.5 102.5 89.25 102.5 89C102.5 88.75 102.25 88.5 101.75 88.5V88C102 88 102.25 87.75 102.25 87.75C102.25 87.75 102 87.5 101.75 87.5V87.25C102 87.25 102 87.25 102.25 87.25Z" fill="white"/>
<path d="M104.25 80.5L103.75 79L103.25 80.5H101.75L103 81.5L102.5 82.75L103.75 82L105 82.75L104.5 81.5L105.75 80.5H104.25Z" fill="white"/>
<path d="M65 100.75C65 121 81.5 137.5 101.75 137.5C111.5 137.5 120.25 133.75 127 127.5C127.5 127.25 127.75 126.75 128.25 126.5C128.75 126 129 125.75 129.5 125.25C132 122.5 134 119.5 135.5 116C134 118 132 120 130 121.5L129.5 121.75V114.5L132 113V112H119.75V113L122.25 114.5V126L121.75 126.25V115L119.25 113.5V111.5H122C119.75 107 116.25 103 112 99.9999L104.25 94.4999C104 94.7499 104 94.7499 103.75 94.9999C103.25 94.9999 102.75 95.2499 102.25 95.2499C101.75 95.2499 101.25 95.2499 100.75 94.9999C100.5 94.9999 100.25 94.7499 100.25 94.4999L92.5 99.9999C87.75 103.5 84 108 81.75 113C78.75 108.25 77.25 102.5 77.25 96.4999C77.25 80.4999 88.75 67.2499 103.75 64.4999C103.25 64.4999 102.75 64.4999 102.25 64.4999C81.5 64.2499 65 80.4999 65 100.75Z" fill="white"/>
<path d="M122.5 101.75V111.25H128.5V101.75H122.5Z" fill="white"/>
<path d="M128 88.25H123V97.75H128V88.25Z" fill="white"/>
<path d="M130.5 99.75V98.5H120.5V99.75L122.5 101V101.25H128.25L128.5 101L130.5 99.75Z" fill="white"/>
<path d="M125.25 72.25L123.75 85H127.5L126 72.25C126 72.25 126 72 125.75 72V71.25C126 71.25 126 71 126 70.75C126 70.5 126 70.25 125.75 70.25V70C126 70 126.25 69.5 126.25 69C126.25 68.5 126 68.25 125.75 68V67.5C126 67.5 126 67.25 126 67C126 66.75 126 66.5 125.75 66.5V66.25C126.5 66.25 127 66 127.25 65.25C127 65.5 126.75 65.5 126.25 65.5C125.25 65.5 124.5 64.75 124.5 63.75C124.5 63.5 124.5 63 124.75 62.75C124.25 63 123.75 63.75 123.75 64.25C123.75 65.25 124.5 66 125.25 66V66.25C125 66.25 125 66.5 125 66.75C125 67 125 67.25 125.25 67.25V67.75C125 67.75 124.75 68.25 124.75 68.75C124.75 69.25 125 69.5 125.25 69.75V70C125 70 125 70.25 125 70.5C125 70.75 125 71 125.25 71V72.25C125.25 72 125.25 72 125.25 72.25Z" fill="white"/>
<path d="M121 86.25L123 87.75H128L129.75 86.25V85.5H121V86.25Z" fill="white"/>
<path d="M126 63.75L126.25 64.5L126.5 63.75H127L126.5 63.5V62.75L126 63.25L125.5 63L125.75 63.5L125.25 64L126 63.75Z" fill="white"/>
</svg>
